<svg version="1.1" viewBox="0 0 71.239 68.289" xmlns="http://www.w3.org/2000/svg">
  <style/>
  <defs>
    <filter id="filter1229-2" color-interpolation-filters="sRGB">
      <feGaussianBlur result="fbSourceGraphic" stdDeviation="0.31 0.31"/>
      <feColorMatrix in="fbSourceGraphic" result="fbSourceGraphicAlpha" values="0 0 0 -1 0 0 0 0 -1 0 0 0 0 -1 0 0 0 0 1 0"/>
      <feGaussianBlur in="fbSourceGraphic" result="blur" stdDeviation="0.31 0.31"/>
    </filter>
    <filter id="filter1225-8" color-interpolation-filters="sRGB">
      <feGaussianBlur result="blur" stdDeviation="0.31 0.31"/>
    </filter>
    <mask id="mask1102-7" maskUnits="userSpaceOnUse">
      <circle cx="95" cy="95.5" r="24" fill="#fff"/>
      <circle cx="95" cy="95" r="24" fill="#050000"/>
    </mask>
    <mask id="mask1015-8" maskUnits="userSpaceOnUse">
      <circle cx="93" cy="33" r="23" fill="#fff"/>
      <circle cx="93" cy="33.6" r="23.1"/>
    </mask>
  </defs>
  <g transform="translate(104.01 -119.58)">
    <path d="m-69 183c21 1 29-13 31-17s4-14 1-25-18-17-26-18-30 11-34 17-3 25 7 33 10 10 21 10z" fill="#5d0000"/>
    <path d="m-69.938 182.12c21 1 27.055-12.442 29.055-16.442s3.4697-13.646 0.46967-24.646-16.497-14.702-24.497-15.702-26.995 9.851-30.995 15.851-2.9116 22.967 7.0884 30.967 7.8787 9.9723 18.879 9.9723z" fill="#af0000" filter="url(#filter1229-2)"/>
    <path d="m-70 180c21 1 25.023-11.503 27.023-15.503s2.3206-11.172-0.67938-22.172c-3-11-13.404-13.906-21.404-14.906-3.8373-0.47965-9.4314 0.66752-14.655 3.2053-5.6673 2.753-10.899 7.0487-12.981 10.171-4 6-5.0329 22.525 4.9671 30.525s6.7296 8.6794 17.73 8.6794z" fill="#5d0000" filter="url(#filter1225-8)"/>
    <circle cx="-68" cy="154" r="25" fill="#ba0000"/>
    <circle transform="translate(-163,59)" cx="95" cy="95.5" r="24" fill="#5d0000" mask="url(#mask1102-7)"/>
    <circle cx="-68" cy="154" r="24" fill="#e38383"/>
    <circle cx="-68" cy="154" r="23" fill="#ba0000"/>
    <circle transform="translate(-161,121)" cx="93" cy="33" r="23" fill="#5d0000" mask="url(#mask1015-8)"/>
  </g>
</svg>
