<svg version="1.1" viewBox="0 0 100 80" xmlns="http://www.w3.org/2000/svg">
  <defs>
    <clipPath id="clipPath968-6-5-6">
      <rect x="33.389" y="118.12" width="15.875" height="9.7165" fill="#a6ffff" fill-opacity=".15726"/>
    </clipPath>
    <filter id="filter918-5-7-2" color-interpolation-filters="sRGB">
      <feGaussianBlur result="blur" stdDeviation="0.01 0.11"/>
    </filter>
    <clipPath id="clipPath1539-4-3">
      <path d="m94.809 134.06v7.9375h-15.875v-7.9375c0.79375 0 0.79375 0 6.6146 3.4396h2.6458c5.8208-3.4396 5.8208-3.4396 6.6146-3.4396z" fill="#d6f4e1" fill-opacity=".41366"/>
    </clipPath>
    <filter id="filter1537-5-7" color-interpolation-filters="sRGB">
      <feGaussianBlur result="blur" stdDeviation="0.01 0.01"/>
    </filter>
  </defs>
  <g transform="translate(465.67 153.9)">
    <path d="m-415.67-153.9c-1.6666 0-8.3333 3.4043-48.333 23.83-1.6666 0.98276-1.6666 1.7021-1.6666 5.1064v51.064h100v-51.064c0-3.4043 0-4.1236-1.6666-5.1064-40-20.426-46.667-23.83-48.333-23.83z" fill="#f5ecd1"/>
    <path d="m-415.67-147.09c-1.4587 0-7.2935 2.9795-42.302 20.856-1.4586 0.86012-1.4586 1.4898-1.4586 4.4692v44.692h87.522v-44.692c0-2.9795 0-3.6091-1.4587-4.4692-35.009-17.877-40.844-20.856-42.302-20.856z" fill="#f1e4bc"/>
    <path transform="matrix(6.2992 0 0 6.4332 -675.99 -896.29)" d="m49.264 119.9v7.9375h-15.875v-7.9375c0.79375 0 0.79375 0 6.6146 3.4396h2.6458c5.8208-3.4396 5.8208-3.4396 6.6146-3.4396z" clip-path="url(#clipPath968-6-5-6)" fill-opacity=".15726" filter="url(#filter918-5-7-2)"/>
    <path d="m-365.67-124.96v51.064h-100v-51.064c5 0 5 0 41.667 22.128h16.667c36.667-22.128 36.667-22.128 41.667-22.128z" fill="#fbf4e1"/>
    <path transform="matrix(6.2992 0 0 6.4332 -962.89 -987.38)" d="m78.934 141.99c0-1.5875 0-1.5875 6.6146-4.4979 0.79375 0 1.8521 1e-5 2.6458 0 6.6146 2.9104 6.6146 2.9104 6.6146 4.4979z" clip-path="url(#clipPath1539-4-3)" fill-opacity=".35" filter="url(#filter1537-5-7)" style="mix-blend-mode:normal"/>
    <path d="m-465.67-73.898c0-10.213 0-10.213 41.667-28.936 5 0 11.667 7e-5 16.667 0 41.667 18.723 41.667 18.723 41.667 28.936z" fill="#fbf4e1"/>
  </g>
</svg>
