<svg version="1.1" viewBox="0 0 100 80" xmlns="http://www.w3.org/2000/svg">
  <g transform="translate(465.67 153.9)">
    <path d="m-415.67-153.9c-1.6666 0-8.3333 3.4043-48.333 23.83-1.6666 0.98276-1.6666 1.7021-1.6666 5.1064v51.064h100v-51.064c0-3.4043 0-4.1236-1.6666-5.1064-40-20.426-46.667-23.83-48.333-23.83z" fill="#f5ecd1"/>
    <path d="m-415.67-147.09c-1.4587 0-7.2935 2.9795-42.302 20.856-1.4586 0.86012-1.4586 1.4898-1.4586 4.4692v44.692h87.522v-44.692c0-2.9795 0-3.6091-1.4587-4.4692-35.009-17.877-40.844-20.856-42.302-20.856z" fill="#f1e4bc"/>
  </g>
</svg>
